<?xml version="1.0" encoding="UTF-8"?>
<svg id="Layer_1" data-name="Layer 1" xmlns="http://www.w3.org/2000/svg" viewBox="0 0 119.9 15.37">
  <defs>
    <style>
      .cls-1 {
        fill: none;
      }

      .cls-2 {
        fill: #00adee;
      }

      .cls-3 {
        fill: #e6e7e8;
      }
    </style>
  </defs>
  <path class="cls-1" d="M50.9,5.52c-.68,0-1.23.23-1.66.7-.42.46-.63,1.04-.64,1.74l4.45-.1c-.02-.69-.21-1.25-.57-1.67-.39-.45-.91-.67-1.58-.67Z"/>
  <path class="cls-1" d="M58.58,5.52c-.71,0-1.26.22-1.65.67-.35.4-.54.94-.57,1.6l4.43-.1c-.05-.6-.24-1.1-.58-1.49-.4-.45-.94-.68-1.62-.68Z"/>
  <path class="cls-1" d="M40.78,8.48c-.06.61-.29,1.12-.72,1.52-.5.47-1.11.71-1.83.71s-1.31-.24-1.79-.71c-.44-.43-.67-.97-.72-1.62l5.06.1Z"/>
  <path class="cls-1" d="M95.77,6.93l-7.05.15c.08-.32.21-.63.37-.9.34-.57.8-1,1.36-1.29.57-.3,1.19-.45,1.86-.45s1.27.15,1.83.44c.55.28.99.71,1.32,1.28.13.23.24.49.31.77Z"/>
  <path class="cls-1" d="M40.81,8.13l-5.1.11v-.07c0-.8.23-1.44.71-1.92.47-.48,1.07-.72,1.81-.72s1.35.24,1.84.72c.49.47.73,1.1.74,1.88Z"/>
  <path class="cls-1" d="M83.27,7.2l-6.8.15c.08-.55.26-1.05.57-1.48.33-.47.75-.83,1.25-1.09.5-.25,1.02-.38,1.57-.38s1.09.13,1.6.38c.5.26.93.62,1.27,1.09.28.39.45.84.54,1.33Z"/>
  <path class="cls-1" d="M17.87,5.52c-.72,0-1.31.25-1.78.75-.47.5-.7,1.13-.7,1.89,0,.72.23,1.33.7,1.82s1.06.74,1.78.74,1.34-.24,1.82-.73c.48-.49.72-1.1.72-1.83s-.24-1.37-.72-1.88c-.48-.51-1.09-.76-1.82-.76Z"/>
  <polygon class="cls-3" points="7.91 7.69 2.8 0 0 0 0 13.21 3.26 13.21 3.26 5.74 8.41 13.21 11.19 13.21 11.19 0 7.91 0 7.91 7.69"/>
  <path class="cls-3" d="M20.84,3.5c-.87-.43-1.86-.64-2.95-.64s-2.04.21-2.92.64c-.88.43-1.57,1.04-2.08,1.84-.51.8-.76,1.72-.76,2.76s.26,1.96.78,2.77c.52.81,1.22,1.43,2.1,1.87.88.44,1.84.66,2.88.66,1.12,0,2.12-.22,3-.67.88-.45,1.56-1.07,2.05-1.87.49-.8.73-1.72.73-2.76s-.25-1.98-.76-2.77c-.51-.79-1.2-1.4-2.07-1.83ZM19.69,10c-.48.49-1.09.73-1.82.73s-1.31-.25-1.78-.74-.7-1.1-.7-1.82c0-.76.23-1.39.7-1.89.47-.5,1.06-.75,1.78-.75s1.34.25,1.82.76c.48.51.72,1.13.72,1.88s-.24,1.34-.72,1.83Z"/>
  <path class="cls-3" d="M30.5,10.41c-.48,0-.87-.14-1.16-.43-.29-.29-.44-.7-.44-1.23v-3.02h2.52v-2.82h-2.5l-.02-2.9h-3.26v1.08c0,.47-.03.82-.09,1.07-.06.25-.19.43-.4.56-.21.13-.53.19-.97.19v2.82h1.46v3.44c0,.92.2,1.69.6,2.32.4.63.93,1.1,1.59,1.41.66.31,1.38.47,2.17.47s1.49-.13,2.14-.4l-.48-2.8c-.41.16-.8.24-1.16.24Z"/>
  <path class="cls-3" d="M35.71,8.17v.07c0,.05,0,.09,0,.14.05.65.28,1.19.72,1.62.48.47,1.08.71,1.79.71s1.33-.24,1.83-.71c.43-.4.66-.91.72-1.52l3.45.08v4.65h-3.26v-2.36c-.21.76-.67,1.38-1.38,1.85-.71.47-1.47.71-2.28.71-.94,0-1.77-.23-2.51-.7-.74-.47-1.32-1.1-1.74-1.89-.41-.79-.62-1.67-.62-2.63,0-1.1.21-2.04.61-2.84.41-.81.97-1.42,1.68-1.85.7-.42,1.5-.64,2.4-.64s1.66.23,2.4.67c.73.45,1.21,1.07,1.42,1.88v-2.35h3.28v5l-3.42.07c-.01-.78-.25-1.41-.74-1.88-.49-.48-1.11-.72-1.84-.72s-1.34.24-1.81.72c-.48.48-.71,1.12-.71,1.92Z"/>
  <polygon class="cls-3" points="53.06 13.21 56.34 13.21 56.34 8.81 53.06 8.74 53.06 13.21"/>
  <path class="cls-3" d="M49.23,6.22c.43-.47.98-.7,1.66-.7s1.19.22,1.58.67c.36.42.55.98.57,1.67l3.31-.07c.04-.66.22-1.2.57-1.6.39-.45.94-.67,1.65-.67s1.22.23,1.62.68c.34.39.53.89.58,1.49l3.29-.07c-.04-.91-.23-1.72-.57-2.4-.39-.77-.93-1.36-1.62-1.76-.69-.4-1.48-.6-2.37-.6-.81,0-1.57.23-2.28.69-.71.46-1.23,1.08-1.56,1.87-.35-.83-.84-1.46-1.47-1.9s-1.39-.66-2.27-.66c-.79,0-1.52.23-2.21.68-.69.45-1.11,1.07-1.27,1.86v-2.34h-3.26v4.97l3.42-.07c0-.7.22-1.27.64-1.74Z"/>
  <polygon class="cls-3" points="45.17 13.21 48.57 13.21 48.59 8.65 45.17 8.58 45.17 13.21"/>
  <polygon class="cls-3" points="60.8 13.21 64.08 13.21 64.08 8.98 60.8 8.91 60.8 13.21"/>
  <polygon class="cls-3" points="67.17 0 65.28 0 65.28 7.59 67.17 7.55 67.17 0"/>
  <polygon class="cls-3" points="65.28 13.21 74.05 13.21 74.05 11.55 67.17 11.55 67.17 9.05 65.28 9.01 65.28 13.21"/>
  <path class="cls-3" d="M85.12,7.83c-.02-.23-.05-.45-.09-.66-.13-.77-.38-1.44-.76-2.02-.49-.75-1.11-1.32-1.88-1.71-.77-.38-1.61-.58-2.53-.58s-1.85.21-2.66.63c-.82.42-1.47,1.03-1.96,1.84-.36.6-.59,1.29-.68,2.06-.03.25-.05.51-.05.78,0,.36.05.7.11,1.04.11.59.32,1.15.63,1.66.5.8,1.15,1.42,1.96,1.87.82.45,1.7.67,2.65.67s1.89-.23,2.71-.68c.82-.45,1.46-1.08,1.91-1.88l-1.44-.74c-.32.56-.77.99-1.35,1.29s-1.2.45-1.85.45c-.55-.01-1.09-.16-1.61-.43-.53-.27-.97-.66-1.32-1.15-.23-.32-.37-.66-.48-1.02-.05-.21-.12-.42-.14-.64h8.83c.03-.27.03-.53,0-.78ZM76.43,7.49s.03-.09.04-.14c.08-.55.26-1.05.57-1.48.33-.47.75-.83,1.25-1.09.5-.25,1.02-.38,1.57-.38s1.09.13,1.6.38c.5.26.93.62,1.27,1.09.28.39.45.84.54,1.33.02.1.06.19.07.29h-6.91Z"/>
  <path class="cls-3" d="M97.7,6.89l-1.93.04c-.07-.28-.18-.54-.31-.77-.33-.57-.77-1-1.32-1.28-.56-.29-1.17-.44-1.83-.44s-1.29.15-1.86.45c-.56.29-1.02.72-1.36,1.29-.16.27-.29.58-.37.9-.09.35-.14.71-.14,1.11v1.31l-1.96-.04V3.06h1.88v2.53c.32-.83.88-1.49,1.68-1.99.8-.49,1.69-.74,2.67-.74s1.79.22,2.55.64c.75.43,1.34,1.05,1.78,1.86.25.46.42.97.52,1.53Z"/>
  <polygon class="cls-3" points="95.93 13.21 97.83 13.21 97.83 9.7 95.94 9.66 95.93 13.21"/>
  <polygon class="cls-3" points="88.58 9.5 88.58 13.21 86.62 13.21 86.62 9.46 88.58 9.5"/>
  <path class="cls-3" d="M107.58,10.55c0,.88-.36,1.58-1.07,2.09-.7.51-1.63.77-2.78.77-1.28,0-2.33-.32-3.16-.95s-1.25-1.5-1.26-2.61h1.74c.05.76.32,1.31.8,1.64.48.33,1.1.5,1.84.5.55,0,1.03-.15,1.44-.44.42-.29.62-.67.62-1.14,0-.2-.04-.38-.1-.54-.09-.22-.23-.4-.44-.53-.36-.24-.95-.42-1.78-.55-1.39-.2-2.42-.51-3.09-.93-.39-.25-.65-.59-.82-1.01-.12-.31-.19-.65-.19-1.04,0-.88.36-1.6,1.08-2.14.72-.54,1.66-.81,2.82-.81,1.27,0,2.29.3,3.06.89.78.6,1.2,1.46,1.27,2.58h-1.75c-.05-.63-.3-1.13-.76-1.49-.45-.37-1.06-.56-1.82-.56-.6,0-1.09.16-1.48.46-.39.31-.58.69-.58,1.15,0,.37.11.67.33.92.07.07.14.14.22.2.37.26.98.47,1.85.62,1,.17,1.78.36,2.33.57.56.2.97.49,1.26.86.17.23.27.52.34.85.04.2.08.4.08.64Z"/>
  <path class="cls-2" d="M64.07,7.62c0,.13.02.25.02.38v.97l1.2.03v-1.41l-1.22.03Z"/>
  <path class="cls-2" d="M74.62,9.21l-7.45-.16v-1.49l7.39-.17c-.03.25-.05.51-.05.78,0,.36.05.7.11,1.04Z"/>
  <path class="cls-2" d="M83.34,7.49h-6.91s.03-.09.04-.14l6.8-.15c.02.1.06.19.07.29Z"/>
  <path class="cls-2" d="M86.62,7.13v2.33l-10.19-.21c-.05-.21-.12-.42-.14-.64h8.83c.03-.27.03-.53,0-.78-.02-.23-.05-.45-.09-.66l1.59-.04Z"/>
  <path class="cls-2" d="M95.95,8.19v1.47s-7.37-.16-7.37-.16v-1.31c0-.4.05-.76.14-1.11l7.05-.15c.12.38.18.8.18,1.26Z"/>
  <path class="cls-2" d="M97.83,9.7v-1.51c0-.46-.05-.89-.13-1.3l1.82-.04c.17.42.43.76.82,1.01.67.42,1.7.73,3.09.93.83.13,1.42.31,1.78.55.21.13.35.31.44.53l-7.82-.17Z"/>
  <path class="cls-2" d="M40.81,8.13v.04c0,.11-.02.21-.03.31l-5.06-.1s0-.09,0-.14l5.1-.11Z"/>
  <path class="cls-2" d="M60.78,7.69l-4.43.1c0,.08-.02.15-.02.24v.79l4.46.1v-.9c0-.11-.01-.21-.02-.31Z"/>
  <path class="cls-2" d="M53.05,7.86l-4.45.1s0,.02,0,.03v.66s4.46.1,4.46.1v-.74c0-.05,0-.09,0-.14Z"/>
  <polygon class="cls-2" points="44.23 8.05 44.23 8.56 45.17 8.58 45.17 8.03 44.23 8.05"/>
  <path class="cls-2" d="M119.9,8.24v.11c-.03.22-.42.39-1.05.51-.63.12-1.49.2-2.46.24l-1.08,1.42c.22-.02.45.02.63.12v.42c-.14.08-.3.12-.47.13h-.67l-.9,1.18c.23-.02.48.02.66.13v.43c-.14.09-.32.13-.51.14h-.68l-1.44,1.88c-.26.35-.26.36-.69.4-.04,0-.08,0-.11,0-.17.01-.24.02-.24-.02,0-.02.03-.06.06-.13l1.04-2.42-.32-.06.37-.04.25-.59-.33-.06.38-.05.26-.6-.43-.05.48-.08.55-1.23-5.7-.12c-.07-.33-.17-.62-.34-.85-.29-.37-.7-.66-1.26-.86-.55-.21-1.33-.4-2.33-.57-.87-.15-1.48-.36-1.85-.62-.08-.06-.15-.13-.22-.2l11.7-.26-.55-1.23-.48-.08.44-.05-.27-.6-.38-.05.33-.06-.25-.59-.37-.04.33-.06-1.05-2.42c-.09-.18-.1-.17.18-.15.03,0,.07.01.11.01.43.04.43.05.69.4l1.44,1.89h.59c.21-.02.44.03.6.13v.44c-.18.1-.43.14-.66.12l.9,1.19h.55c.21-.02.42.03.59.12v.42c-.18.1-.41.14-.63.12l1.08,1.42c1.94.08,3.45.31,3.51.76Z"/>
  <path class="cls-2" d="M44.23,8.06v.5l-3.45-.08c.01-.1.03-.2.03-.31v-.04l3.42-.07Z"/>
  <path class="cls-2" d="M64.07,7.62l-3.29.07c0,.1.02.2.02.31v.9l3.28.07v-.97c0-.13-.01-.26-.02-.38Z"/>
  <path class="cls-2" d="M56.35,7.79l-3.31.07s0,.09,0,.14v.74l3.28.07v-.79c0-.08.01-.16.02-.24Z"/>
  <path class="cls-2" d="M48.6,7.96l-3.42.07v.54l3.42.07v-.66s0-.02,0-.03Z"/>
  <polygon class="cls-2" points="65.28 7.59 65.28 9.01 67.17 9.05 67.17 7.55 65.28 7.59"/>
  <path class="cls-2" d="M97.83,8.19v1.51l-1.89-.04v-1.47c.01-.46-.05-.88-.17-1.26l1.93-.04c.08.41.13.84.13,1.3Z"/>
</svg>